<?xml version="1.0" encoding="utf-8"?>
<!-- Generator: Adobe Illustrator 23.1.0, SVG Export Plug-In . SVG Version: 6.00 Build 0)  -->
<svg version="1.1" id="Layer_1_1_" xmlns="http://www.w3.org/2000/svg" xmlns:xlink="http://www.w3.org/1999/xlink" x="0px" y="0px"
	 viewBox="0 0 64 64" style="enable-background:new 0 0 64 64;" xml:space="preserve">
<style type="text/css">
	.st0{fill:#08031A;}
	.st1{fill:#CDC8E6;}
	.st2{fill:#A69FD1;}
	.st3{fill:none;}
</style>
<g>
	<circle class="st0" cx="32" cy="32" r="32"/>
</g>
<path class="st1" d="M55.2,22.6c-0.1,0-0.1,0.1-0.2,0.1c-0.2,0.1-0.4,0.2-0.7,0.3c-1.5,0.5-3.3-0.1-4.1-1.6
	c-0.8-1.5-0.5-3.3,0.7-4.3c-7.2-9.3-20.4-12-30.9-6C9.5,17.3,5.3,30,9.7,40.9c0.4,1,0.9,2.1,1.5,3.1c0.1,0.2,0.1,0.5-0.2,0.7
	c-0.2,0.1-0.5,0.1-0.7-0.2c-0.6-1-1.1-2.1-1.5-3.1C4.2,30,8.6,16.7,19.5,10.3s24.7-3.4,32.2,6.3c1.6-0.8,3.6-0.2,4.5,1.4
	C57.2,19.6,56.7,21.6,55.2,22.6z"/>
<circle class="st1" cx="32" cy="32" r="12"/>
<path class="st2" d="M44,32c0,6.6-5.4,12-12,12c-2,0-3.9-0.5-5.6-1.4C25.5,40.9,25,39,25,37c0-6.6,5.4-12,12-12c2,0,3.9,0.5,5.6,1.4
	C43.5,28.1,44,30,44,32z"/>
<rect y="0" class="st3" width="64" height="64"/>
</svg>
