<?xml version="1.0" encoding="utf-8"?>
<svg version="1.1" id="Layer_1" xmlns="http://www.w3.org/2000/svg" xmlns:xlink="http://www.w3.org/1999/xlink" x="0px" y="0px"
  viewBox="0 0 48 48" style="enable-background:new 0 0 48 48;" xml:space="preserve">
<style type="text/css">
	.st0{fill:#234B7A;}
	.st1{fill:#9DC1E3;}
	.st2{fill:#9DC1E3;}
</style>
<path class="st0" d="M40.34,24.42c0,0.36-0.02,0.73-0.06,1.1c-0.09,1.01-0.28,2-0.55,2.94c-2.1,7.45-9.27,12.57-17.25,11.82
	C14.5,39.54,8.4,33.17,7.71,25.47c-2.59,0.06-5.16,0.2-7.71,0.42v-4.1c2.6-0.21,5.22-0.35,7.86-0.4C9.21,12.96,16.9,6.91,25.52,7.72
	S40.57,15.89,40.34,24.42z"/>
<path class="st1" d="M48,26.27v4.23c-1.42-0.4-2.84-0.78-4.28-1.13c0.31-1.12,0.52-2.28,0.63-3.47c0.02-0.19,0.03-0.37,0.04-0.56
	C45.6,25.63,46.81,25.94,48,26.27z"/>
<path class="st2" d="M40.34,24.42c0,0.36-0.02,0.73-0.06,1.1c-0.09,1.01-0.28,2-0.55,2.94c-0.36,1.29-0.88,2.5-1.52,3.63
	C35.91,33.31,33.29,34,30.5,34C21.39,34,14,26.61,14,17.5c0-2.78,0.69-5.4,1.91-7.7c2.81-1.62,6.14-2.41,9.61-2.08
	C34.14,8.53,40.57,15.89,40.34,24.42z"/>
</svg>
