<?xml version="1.0" encoding="utf-8"?>
<!-- Generator: Adobe Illustrator 25.4.1, SVG Export Plug-In . SVG Version: 6.00 Build 0)  -->
<svg version="1.1" xmlns="http://www.w3.org/2000/svg" xmlns:xlink="http://www.w3.org/1999/xlink" x="0px" y="0px"
	 viewBox="0 0 840 300" style="enable-background:new 0 0 840 300;" xml:space="preserve">
<style type="text/css">
	.st0{fill:#8EA2B3;}
	.st1{fill:#223C54;}
	.st2{fill:#6D88A3;}
	.asteroid {
		animation: 1s 15s ease-in asteroid-fall;
		transform-origin: 592px 8px;
		opacity: 0.0;
	}
	@keyframes asteroid-fall {
		from {
			transform: rotate(-55deg);
			opacity: 0.0;
		}
		to {
			transform: rotate(0deg);
			opacity: 1.0;
		}
	}
	.stone-1 {
		animation: 1s 15.9s stone-1-fall;
		transform-origin: 613px 25px;
		opacity: 0.0;
	}
	@keyframes stone-1-fall {
		from {
			transform: rotate(0deg);
			opacity: 1.0;
		}
		to {
			transform: rotate(-210deg);
			opacity: 0.0;
		}
	}
	.stone-2 {
		animation: 1s 15.9s stone-2-fall;
		transform-origin: 617.5px 26px;
		opacity: 0.0;
	}
	@keyframes stone-2-fall {
		from {
			transform: rotate(0deg);
			opacity: 1.0;
		}
		to {
			transform: rotate(-230deg);
			opacity: 0.0;
		}
	}
	.stone-3 {
		animation: 1s 15.9s stone-3-fall;
		transform-origin: 621.5px 33px;
		opacity: 0.0;
	}
	@keyframes stone-3-fall {
		from {
			transform: rotate(0deg);
			opacity: 1.0;
		}
		to {
			transform: rotate(240deg);
			opacity: 0.0;
		}
	}
	.stone-4 {
		animation: 1s 15.9s stone-4-fall;
		transform-origin: 620.5px 32px;
		opacity: 0.0;
	}
	@keyframes stone-4-fall {
		from {
			transform: rotate(0deg);
			opacity: 1.0;
		}
		to {
			transform: rotate(210deg);
			opacity: 0.0;
		}
	}
	.stone-5 {
		animation: 1s 15.9s stone-5-fall;
		transform-origin: 615.5px 26px;
		opacity: 0.0;
	}
	@keyframes stone-5-fall {
		from {
			transform: rotate(0deg);
			opacity: 1.0;
		}
		to {
			transform: rotate(-210deg);
			opacity: 0.0;
		}
	}
	.stone-6 {
		animation: 1s 15.9s stone-6-fall;
		transform-origin: 619.5px 31px;
		opacity: 0.0;
	}
	@keyframes stone-6-fall {
		from {
			transform: rotate(0deg);
			opacity: 1.0;
		}
		to {
			transform: rotate(230deg);
			opacity: 0.0;
		}
	}
</style>
<g id="Layer_1">
	<g>
		<g>
			<path class="st0" d="M237.93,262.5v-43.2h3.45v19.92h25.02V219.3h3.48v43.2h-3.48v-19.92h-25.02v19.92H237.93z"/>
			<path class="st0" d="M294.96,263.4c-3.24,0-6.12-0.68-8.62-2.03c-2.51-1.35-4.48-3.25-5.91-5.7c-1.43-2.45-2.15-5.33-2.15-8.62
				V219.3h3.48v27.03c0,2.46,0.41,4.57,1.24,6.31c0.83,1.75,1.91,3.18,3.24,4.28c1.33,1.1,2.76,1.91,4.29,2.43
				c1.53,0.52,3.01,0.78,4.43,0.78s2.9-0.26,4.44-0.78c1.54-0.52,2.97-1.33,4.29-2.43c1.32-1.1,2.39-2.52,3.22-4.28
				c0.83-1.75,1.24-3.85,1.24-6.31V219.3h3.48v27.75c0,3.28-0.71,6.15-2.14,8.59c-1.43,2.45-3.4,4.36-5.91,5.72
				C301.07,262.72,298.2,263.4,294.96,263.4z"/>
			<path class="st0" d="M337.2,263.4c-3.14,0-5.93-0.54-8.36-1.62s-4.47-2.61-6.13-4.59c-1.66-1.98-2.92-4.35-3.78-7.11
				c-0.86-2.76-1.29-5.82-1.29-9.18c0-4.46,0.75-8.38,2.27-11.75c1.51-3.37,3.71-6,6.61-7.88c2.9-1.88,6.46-2.82,10.68-2.82
				c4.36,0,7.94,1.02,10.75,3.06c2.81,2.04,4.79,4.72,5.92,8.04l-3.42,1.05c-1-2.66-2.62-4.79-4.88-6.38
				c-2.25-1.59-5.02-2.4-8.29-2.42c-3.54,0-6.49,0.8-8.83,2.42c-2.35,1.61-4.12,3.85-5.29,6.73c-1.18,2.88-1.79,6.19-1.83,9.93
				c-0.04,3.74,0.53,7.04,1.72,9.92c1.19,2.87,2.97,5.12,5.36,6.75c2.38,1.63,5.34,2.44,8.88,2.44c3.38,0.02,6.14-0.64,8.29-1.98
				c2.15-1.34,3.75-3.23,4.8-5.66s1.62-5.27,1.7-8.54h-10.74v-3.15h14.34c0.06,0.5,0.09,0.99,0.11,1.47
				c0.01,0.48,0.01,0.85,0.01,1.11c0,3.82-0.67,7.25-2,10.29c-1.33,3.04-3.37,5.44-6.12,7.2S341.44,263.4,337.2,263.4z"/>
			<path class="st0" d="M379.05,263.4c-4.3,0-7.91-0.96-10.83-2.87c-2.92-1.91-5.12-4.55-6.6-7.94c-1.48-3.38-2.22-7.28-2.22-11.7
				s0.74-8.32,2.22-11.7c1.48-3.38,3.68-6.03,6.6-7.94c2.92-1.91,6.53-2.86,10.83-2.86c4.3,0,7.91,0.96,10.81,2.86
				c2.91,1.91,5.11,4.56,6.58,7.94c1.48,3.38,2.22,7.28,2.22,11.7s-0.74,8.32-2.22,11.7c-1.48,3.38-3.67,6.03-6.58,7.94
				C386.95,262.44,383.35,263.4,379.05,263.4z M379.05,260.01c3.54,0.02,6.49-0.78,8.85-2.42c2.36-1.63,4.13-3.88,5.31-6.76
				c1.18-2.88,1.77-6.19,1.77-9.93s-0.59-7.05-1.77-9.93c-1.18-2.88-2.95-5.13-5.31-6.75s-5.31-2.43-8.85-2.43
				c-3.54-0.02-6.49,0.78-8.83,2.4c-2.35,1.62-4.12,3.88-5.29,6.76c-1.18,2.89-1.79,6.21-1.83,9.95c-0.04,3.74,0.53,7.04,1.72,9.92
				c1.19,2.87,2.97,5.12,5.36,6.75C372.55,259.19,375.51,260.01,379.05,260.01z"/>
			<path class="st0" d="M428.54,262.5v-39.84h-15.48v-3.36h34.41v3.36h-15.48v39.84H428.54z"/>
			<path class="st0" d="M452.27,262.5v-43.2h3.45v19.92h25.02V219.3h3.48v43.2h-3.48v-19.92h-25.02v19.92H452.27z"/>
			<path class="st0" d="M492.62,262.5v-43.2h26.7v3.36h-23.25v16.41h19.65v3.36h-19.65v16.71h23.25v3.36H492.62z"/>
			<path class="st0" d="M526.52,262.5v-43.2h3.21l17.7,38.22l17.52-38.22h3.33v43.14h-3.39v-35.19l-16.08,35.25h-2.82l-16.11-35.25
				v35.25H526.52z"/>
			<path class="st0" d="M576.68,262.5v-43.2h26.7v3.36h-23.25v16.41h19.65v3.36h-19.65v16.71h23.25v3.36H576.68z"/>
		</g>
	</g>
	<path class="st1" d="M622.44,40.64c-0.01,0.4-0.03,0.81-0.07,1.22c-0.1,1.12-0.31,2.2-0.6,3.24c-2.31,8.19-10.21,13.82-18.98,13
		s-15.49-7.81-16.25-16.29c-1.5,0.04-3,0.1-4.49,0.18c-9.22,0.5-18.25,1.84-27,3.96v-4.63c8.79-2.06,17.85-3.36,27.1-3.84
		c1.52-0.08,3.04-0.14,4.56-0.17c1.49-9.27,9.94-15.91,19.42-15.03C615.61,23.16,622.69,31.26,622.44,40.64z"/>
	<g>
		<path class="st2" d="M622.44,40.64c-0.01,0.4-0.03,0.81-0.07,1.22c-0.1,1.12-0.31,2.2-0.6,3.24c-0.9,3.21-2.67,6.02-5,8.21
			c-1.05,0.15-2.13,0.23-3.22,0.23c-12.7,0-23-10.3-23-23c0-0.62,0.02-1.24,0.08-1.85c3.67-4.4,9.37-6.98,15.5-6.41
			C615.61,23.16,622.69,31.26,622.44,40.64z"/>
	</g>
	<g>
		<path class="st2" d="M663.05,55.44v5.13c-10.82-6.02-22.5-10.74-34.86-13.94c-1.12-0.29-1.83-1.37-1.64-2.51
			c0-0.02,0.01-0.04,0.01-0.06c0.21-1.28,1.48-2.12,2.74-1.79C641.21,45.34,652.52,49.81,663.05,55.44z"/>
	</g>
	<g>
		<path class="st1" d="M69.96,177.9c-10.67,0-20.28-1.88-28.85-5.65s-15.6-9.17-21.1-16.2c-5.5-7.03-8.98-15.42-10.45-25.15
			l28.4-4.2c2,8.27,6.13,14.63,12.4,19.1c6.27,4.47,13.4,6.7,21.4,6.7c4.47,0,8.8-0.7,13-2.1c4.2-1.4,7.65-3.47,10.35-6.2
			c2.7-2.73,4.05-6.1,4.05-10.1c0-1.47-0.22-2.88-0.65-4.25c-0.43-1.37-1.15-2.65-2.15-3.85c-1-1.2-2.42-2.33-4.25-3.4
			c-1.83-1.07-4.15-2.03-6.95-2.9l-37.4-11c-2.8-0.8-6.05-1.93-9.75-3.4c-3.7-1.47-7.28-3.57-10.75-6.3
			c-3.47-2.73-6.35-6.35-8.65-10.85c-2.3-4.5-3.45-10.18-3.45-17.05c0-9.67,2.43-17.7,7.3-24.1c4.87-6.4,11.37-11.17,19.5-14.3
			c8.13-3.13,17.13-4.67,27-4.6c9.93,0.13,18.8,1.83,26.6,5.1c7.8,3.27,14.33,8.02,19.6,14.25c5.27,6.23,9.07,13.85,11.4,22.85
			l-29.4,5c-1.07-4.67-3.04-8.6-5.9-11.8c-2.87-3.2-6.28-5.63-10.25-7.3c-3.97-1.67-8.12-2.57-12.45-2.7
			c-4.27-0.13-8.28,0.45-12.05,1.75c-3.77,1.3-6.83,3.18-9.2,5.65c-2.37,2.47-3.55,5.4-3.55,8.8c0,3.13,0.97,5.68,2.9,7.65
			c1.93,1.97,4.37,3.55,7.3,4.75c2.93,1.2,5.93,2.2,9,3l25,6.8c3.73,1,7.87,2.32,12.4,3.95c4.53,1.63,8.88,3.9,13.05,6.8
			c4.17,2.9,7.6,6.72,10.3,11.45c2.7,4.73,4.05,10.73,4.05,18c0,7.73-1.62,14.48-4.85,20.25c-3.23,5.77-7.58,10.53-13.05,14.3
			c-5.47,3.77-11.65,6.58-18.55,8.45C84.41,176.96,77.3,177.9,69.96,177.9z"/>
		<path class="st1" d="M179.76,177.9c-7.73,0-14.28-1.48-19.65-4.45c-5.37-2.96-9.43-6.93-12.2-11.9
			c-2.77-4.97-4.15-10.45-4.15-16.45c0-5,0.77-9.57,2.3-13.7c1.53-4.13,4.02-7.78,7.45-10.95c3.43-3.17,8.05-5.82,13.85-7.95
			c4-1.47,8.77-2.77,14.3-3.9c5.53-1.13,11.8-2.22,18.8-3.25c7-1.03,14.7-2.18,23.1-3.45l-9.8,5.4c0-6.4-1.53-11.1-4.6-14.1
			s-8.2-4.5-15.4-4.5c-4,0-8.17,0.97-12.5,2.9c-4.33,1.93-7.37,5.37-9.1,10.3l-24.6-7.8c2.73-8.93,7.87-16.2,15.4-21.8
			c7.53-5.6,17.8-8.4,30.8-8.4c9.53,0,18,1.47,25.4,4.4c7.4,2.93,13,8,16.8,15.2c2.13,4,3.4,8,3.8,12c0.4,4,0.6,8.47,0.6,13.4v66
			h-23.8v-22.2l3.4,4.6c-5.27,7.27-10.95,12.52-17.05,15.75C196.81,176.28,189.09,177.9,179.76,177.9z M185.56,156.5
			c5,0,9.22-0.88,12.65-2.65c3.43-1.77,6.17-3.78,8.2-6.05c2.03-2.27,3.42-4.17,4.15-5.7c1.4-2.93,2.22-6.35,2.45-10.25
			c0.23-3.9,0.35-7.15,0.35-9.75l8,2c-8.07,1.33-14.6,2.45-19.6,3.35c-5,0.9-9.03,1.72-12.1,2.45c-3.07,0.73-5.77,1.53-8.1,2.4
			c-2.67,1.07-4.82,2.22-6.45,3.45c-1.63,1.23-2.83,2.58-3.6,4.05c-0.77,1.47-1.15,3.1-1.15,4.9c0,2.47,0.62,4.58,1.85,6.35
			c1.23,1.77,2.98,3.12,5.25,4.05C179.73,156.03,182.43,156.5,185.56,156.5z"/>
		<path class="st1" d="M254.36,87.9v-21h76.8v21H254.36z M331.16,174.9c-7.47,1.4-14.78,2.02-21.95,1.85
			c-7.17-0.17-13.57-1.43-19.2-3.8c-5.63-2.37-9.92-6.18-12.85-11.45c-2.67-4.93-4.07-9.95-4.2-15.05c-0.13-5.1-0.2-10.88-0.2-17.35
			V36.9h27.2v90.6c0,4.2,0.05,7.98,0.15,11.35c0.1,3.37,0.78,6.05,2.05,8.05c2.4,3.8,6.23,5.87,11.5,6.2
			c5.27,0.33,11.1,0.07,17.5-0.8V174.9z"/>
		<path class="st1" d="M399.36,177.9c-11.07,0-20.82-2.38-29.25-7.15c-8.43-4.77-15.03-11.33-19.8-19.7
			c-4.77-8.37-7.15-17.95-7.15-28.75c0-11.8,2.33-22.07,7-30.8c4.67-8.73,11.1-15.52,19.3-20.35c8.2-4.83,17.63-7.25,28.3-7.25
			c11.33,0,20.97,2.67,28.9,8c7.93,5.33,13.8,12.83,17.6,22.5c3.8,9.67,5.13,21.03,4,34.1h-26.9v-10c0-11-1.75-18.92-5.25-23.75
			c-3.5-4.83-9.22-7.25-17.15-7.25c-9.27,0-16.08,2.82-20.45,8.45c-4.37,5.63-6.55,13.95-6.55,24.95c0,10.07,2.18,17.85,6.55,23.35
			c4.37,5.5,10.78,8.25,19.25,8.25c5.33,0,9.9-1.17,13.7-3.5c3.8-2.33,6.7-5.7,8.7-10.1l27.2,7.8c-4.07,9.87-10.48,17.54-19.25,23
			C419.34,175.16,409.76,177.9,399.36,177.9z M363.56,128.5v-20.2h71.6v20.2H363.56z"/>
		<path class="st1" d="M531.75,174.9v-147h27.2v147H531.75z"/>
		<path class="st1" d="M472.75,174.9v-147h27.2v147H472.75z"/>
		<path class="st1" d="M590.95,174.9v-108h27.2v108H590.95z"/>
		<path class="st1" d="M636.15,87.9v-21h76.8v21H636.15z M712.95,174.9c-7.47,1.4-14.78,2.02-21.95,1.85
			c-7.17-0.17-13.57-1.43-19.2-3.8c-5.63-2.37-9.92-6.18-12.85-11.45c-2.67-4.93-4.07-9.95-4.2-15.05c-0.13-5.1-0.2-10.88-0.2-17.35
			V36.9h27.2v90.6c0,4.2,0.05,7.98,0.15,11.35c0.1,3.37,0.78,6.05,2.05,8.05c2.4,3.8,6.23,5.87,11.5,6.2
			c5.27,0.33,11.1,0.07,17.5-0.8V174.9z"/>
		<path class="st1" d="M781.15,177.9c-11.07,0-20.82-2.38-29.25-7.15c-8.43-4.77-15.03-11.33-19.8-19.7
			c-4.77-8.37-7.15-17.95-7.15-28.75c0-11.8,2.33-22.07,7-30.8c4.67-8.73,11.1-15.52,19.3-20.35c8.2-4.83,17.63-7.25,28.3-7.25
			c11.33,0,20.97,2.67,28.9,8c7.93,5.33,13.8,12.83,17.6,22.5c3.8,9.67,5.13,21.03,4,34.1h-26.9v-10c0-11-1.75-18.92-5.25-23.75
			c-3.5-4.83-9.22-7.25-17.15-7.25c-9.27,0-16.08,2.82-20.45,8.45c-4.37,5.63-6.55,13.95-6.55,24.95c0,10.07,2.18,17.85,6.55,23.35
			c4.37,5.5,10.78,8.25,19.25,8.25c5.33,0,9.9-1.17,13.7-3.5c3.8-2.33,6.7-5.7,8.7-10.1l27.2,7.8c-4.07,9.87-10.48,17.54-19.25,23
			C801.13,175.16,791.55,177.9,781.15,177.9z M745.35,128.5v-20.2h71.6v20.2H745.35z"/>
	</g>
</g>
<g id="Layer_2">
	<circle class="st2 asteroid" cx="616" cy="31.5" r="3"/>
	<circle class="st2 stone-1" cx="618.5" cy="29" r="0.75"/>
	<circle class="st2 stone-2" cx="618.5" cy="29" r="0.75"/>
	<circle class="st2 stone-3" cx="618.5" cy="29" r="0.75"/>
	<circle class="st2 stone-4" cx="618.5" cy="29" r="1.5"/>
	<circle class="st2 stone-5" cx="618.5" cy="29" r="1.5"/>
	<circle class="st2 stone-6" cx="618.5" cy="29" r="2.5"/>
</g>
</svg>
